<svg width="1024" height="768" xmlns="http://www.w3.org/2000/svg">
 <title>ocal penguin</title>
 <defs>
  <radialGradient r="150.3" gradientTransform="matrix(.14877 .019985 -.019401 .14228 351.62 327.53)" cx="366.78" cy="437.86" gradientUnits="userSpaceOnUse" id="radialGradient5886-7">
   <stop offset="0" id="stop5880-4"/>
   <stop offset="1" stop-opacity="0" id="stop5882-3"/>
  </radialGradient>
  <filter color-interpolation-filters="sRGB" height="1.5483" x="-0.43231" y="-0.27415" width="1.8646" id="filter5946">
   <feGaussianBlur stdDeviation="2.36547" id="feGaussianBlur5948"/>
  </filter>
  <radialGradient r="150.3" gradientTransform="matrix(.68663 -.0922 .060918 .67040 49.227 131.94)" cx="241.16" cy="390.35" gradientUnits="userSpaceOnUse" id="radialGradient5886">
   <stop offset="0" id="stop5880"/>
   <stop offset="1" stop-opacity="0" id="stop5882"/>
  </radialGradient>
  <filter color-interpolation-filters="sRGB" height="1.3444" x="-0.07867" y="-0.1722" width="1.1573" id="filter4338">
   <feGaussianBlur stdDeviation="2.22073" id="feGaussianBlur4340"/>
  </filter>
  <filter color-interpolation-filters="sRGB" height="1.3447" x="-0.07909" y="-0.17235" width="1.1582" id="filter4606">
   <feGaussianBlur stdDeviation="2.19621" id="feGaussianBlur4608"/>
  </filter>
  <filter color-interpolation-filters="sRGB" height="1.3475" x="-0.07835" y="-0.17377" width="1.1567" id="filter4426">
   <feGaussianBlur stdDeviation="2.24103" id="feGaussianBlur4428"/>
  </filter>
  <filter color-interpolation-filters="sRGB" height="1.3314" x="-0.08054" y="-0.16569" width="1.1611" id="filter4570">
   <feGaussianBlur stdDeviation="2.23008" id="feGaussianBlur4572"/>
  </filter>
  <filter color-interpolation-filters="sRGB" height="1.298" x="-0.13932" y="-0.14901" width="1.2786" id="filter5081">
   <feGaussianBlur stdDeviation="4.0338" id="feGaussianBlur5083"/>
  </filter>
  <filter color-interpolation-filters="sRGB" height="1.298" x="-0.13932" y="-0.14901" width="1.2786" id="filter5081-3">
   <feGaussianBlur stdDeviation="4.0338" id="feGaussianBlur5083-1"/>
  </filter>
  <filter color-interpolation-filters="sRGB" height="1.7038" x="-0.19195" y="-0.35189" width="1.3839" id="filter5182">
   <feGaussianBlur stdDeviation="5.48033" id="feGaussianBlur5184"/>
  </filter>
  <filter color-interpolation-filters="sRGB" id="filter3981">
   <feGaussianBlur stdDeviation="0.23768" id="feGaussianBlur3983"/>
  </filter>
  <filter color-interpolation-filters="sRGB" id="filter3981-0">
   <feGaussianBlur stdDeviation="0.23768" id="feGaussianBlur3983-4"/>
  </filter>
  <filter color-interpolation-filters="sRGB" height="1.3841" x="-0.17943" y="-0.19205" width="1.3589" id="filter3973">
   <feGaussianBlur stdDeviation="1.80116" id="feGaussianBlur3975"/>
  </filter>
  <filter color-interpolation-filters="sRGB" height="1.2747" x="-0.0605" y="-0.13733" width="1.121" id="filter4716">
   <feGaussianBlur stdDeviation="1.83025" id="feGaussianBlur4718"/>
  </filter>
  <filter color-interpolation-filters="sRGB" height="2.1592" x="-0.30384" y="-0.57962" width="1.6077" id="filter5326">
   <feGaussianBlur stdDeviation="0.51996" id="feGaussianBlur5328"/>
  </filter>
  <filter color-interpolation-filters="sRGB" height="2.1592" x="-0.30384" y="-0.57962" width="1.6077" id="filter5326-5">
   <feGaussianBlur stdDeviation="0.51996" id="feGaussianBlur5328-1"/>
  </filter>
  <radialGradient r="40.693" gradientTransform="matrix(-.92090 -.015550 .0097692 -.57854 766.44 350.92)" cx="400.09" cy="213.97" gradientUnits="userSpaceOnUse" id="radialGradient3792">
   <stop offset="0" stop-opacity="0" stop-color="#fff" id="stop4722"/>
   <stop offset="1" id="stop4724"/>
  </radialGradient>
  <radialGradient r="11.112" gradientTransform="matrix(2.954 -.025162 .022749 2.4927 -1050.7 -221.41)" cx="535.89" cy="157.37" gradientUnits="userSpaceOnUse" id="radialGradient3822">
   <stop offset="0" stop-color="#fff" id="stop3869"/>
   <stop offset="1" stop-color="#979797" id="stop3871"/>
  </radialGradient>
  <radialGradient r="11.112" gradientTransform="matrix(.22664 -.10455 .18862 .40889 265.63 231.73)" cx="536.98" cy="157" gradientUnits="userSpaceOnUse" id="radialGradient3827">
   <stop offset="0" stop-color="#fff" id="stop3911"/>
   <stop offset="1" id="stop3913"/>
  </radialGradient>
  <linearGradient x1="0.60334" y1="0.23249" x2="0.28185" y2="0.97758" id="linearGradient3877">
   <stop offset="0" stop-color="#b6c7ea" id="stop5188"/>
   <stop offset="1" stop-opacity="0" stop-color="#b6c7ea" id="stop5190"/>
  </linearGradient>
  <radialGradient r="11.112" gradientTransform="matrix(.22664 -.10455 .18862 .40889 320.46 231.73)" cx="536.98" cy="157" gradientUnits="userSpaceOnUse" id="radialGradient3884">
   <stop offset="0" stop-color="#fff" id="stop3911-6"/>
   <stop offset="1" id="stop3913-4"/>
  </radialGradient>
 </defs>
 <metadata>image/svg+xmlOpenclipartLittle penguin2012-05-16T14:45:08Another one of my little penguin friends - I just can't contain myself :-)
\nYou could add a heart or another symbol to his chest or give him a balloon or something else to hold, if you like.http://openclipart.org/detail/170053/little-penguin-by-moiniMoiniLinuxanimalbirdclip artclipartpenguintux</metadata>
 <g>
  <title>Layer 1</title>
  <g id="svg_4">
   <g id="g3909">
    <g id="g5194">
     <path fill="#ff7f2a" d="m257.71524,632.65448c-21.84477,15.14307 -28.9075,29.44617 -37.44661,45.15485c-13.93085,25.82861 1.49493,29.7644 46.25606,28.63489c23.26648,32.43353 36.77933,27.63196 58.37109,4.40546c29.73178,18.12341 50.31619,20.46405 48.4584,-11.01349c0.6582,-21.78546 -14.38251,-42.44879 -34.1409,-62.77588l-81.49805,-4.40582z" id="path4083"/>
     <path fill="#fff" filter="url(#filter4338)" d="m272.70886,687.98285c-71.70638,9.38086 -28.60464,-31.63098 -28.27652,-39.95868c-2.81519,0.1369 -6.97139,11.17535 -10.55515,17.76917c-11.69513,21.68243 -5.49661,29.49023 38.83212,24.03857c19.53235,27.22888 30.87592,23.19653 49.00214,3.69836c24.7482,14.79358 43.19269,17.52582 40.68228,-9.24579c-0.69714,-4.2771 -1.96356,-7.34558 -3.03598,-9.48212c-0.19711,17.81329 2.8927,40.49249 -37.87735,16.87878c-15.14645,13.37048 -32.38217,19.66956 -48.77087,-3.69843l-0.00067,0.00012z" opacity="0.61667" id="path4083-94"/>
     <path filter="url(#filter4606)" d="m269.90103,698.6394c-42.41888,6.52631 -39.44359,2.56305 -48.65564,-1.48248c-9.63812,-6.1593 13.16145,-35.27271 13.98604,-39.97296c-3.25952,0.15533 -8.62244,12.672 -12.77184,20.14874c-13.00945,24.05457 -5.63097,31.05225 44.13544,26.43268c22.61554,30.87512 35.74954,26.30273 56.73694,4.19366c28.6546,16.7746 48.63275,21.24927 45.72598,-9.10718c-0.80716,-4.84991 -0.89664,-9.70593 -2.13849,-12.1286c-0.11398,10.09918 1.82455,24.6059 -3.21014,30.21393c-5.03464,5.60681 -17.04303,-1.81689 -40.64508,-15.20471c-8.76849,7.58038 -17.04083,21.9671 -26.59482,22.33588c-9.55328,0.36859 -17.08383,-12.17944 -26.57187,-25.42859l0.00348,-0.00037z" opacity="0.61667" id="path4083-94-66"/>
    </g>
    <g id="g5199">
     <path fill="#ff7f2a" d="m510.21637,632.56293c21.84479,15.14307 28.90753,29.44617 37.44659,45.15479c13.93091,25.82867 -1.49493,29.76453 -46.25604,28.63495c-23.26642,32.43353 -36.7793,27.6319 -58.37112,4.4054c-29.73181,18.12341 -50.31619,20.46411 -48.45831,-11.01343c-0.65826,-21.78546 14.38245,-42.44879 34.14081,-62.77588l81.49808,-4.40582z" id="path4083-9"/>
     <path fill="#fff" filter="url(#filter4426)" d="m494.69064,687.89136c71.70639,9.3808 28.60464,-31.63104 28.27652,-39.95874c2.81512,0.13696 6.97137,11.17535 10.55511,17.76917c15.05865,25.04669 7.20587,31.19812 -38.83203,24.03857c-19.53241,27.22882 -30.87582,23.19647 -49.00208,3.69836c-24.74826,14.79358 -43.19269,17.52582 -40.6824,-9.24579c0.69724,-4.2771 1.96353,-7.34558 3.03613,-9.48212c-1.40308,18.45331 -6.33539,41.87024 37.87732,16.87878c15.14636,13.37048 32.3822,19.66956 48.77078,-3.69836l0.00064,0.00012z" opacity="0.61667" id="path4083-94-6"/>
     <path filter="url(#filter4570)" d="m497.99146,698.54785c42.41882,6.52631 39.44348,2.56305 48.65558,-1.48254c9.63806,-6.1593 -15.08899,-39.12787 -15.91364,-43.828c3.25958,0.15527 9.99915,15.70044 14.14856,23.1781c13.00946,24.05463 6.18152,31.87933 -43.58609,27.25757c-22.61563,30.87506 -35.74973,26.30261 -56.73703,4.19354c-28.65466,16.7746 -48.63275,20.97388 -45.72607,-9.38263c0.80728,-4.84991 0.8967,-9.43073 2.13849,-11.85333c0.11401,10.09924 -1.82446,24.60596 3.21014,30.21387c5.03476,5.60681 17.04306,-1.81683 40.64523,-15.20465c8.7684,7.58038 17.0408,21.96716 26.5947,22.33588c9.55331,0.36859 17.08383,-12.17944 26.5719,-25.42853l-0.00177,0.00073z" opacity="0.61667" id="path4083-94-66-1"/>
    </g>
   </g>
   <path fill="black" d="m389.81598,27.0172c-82.047,-0.0497 -139.53699,52.0388 -154.409,89.3348c-36.43896,66.814 -3.78796,128.58501 -10.76599,146.16499c-15.05402,45.84601 -16.98499,40.582 -85.31396,126.19901c-42.38605,54.01001 -96.75604,40.28601 -81.703,77.95499c1.79498,9.99701 86.35797,43.65604 129.06195,6.746c0.87201,53.02399 17.31201,113.62 42.453,137.37402c25.20801,31.53796 99.98303,43.14001 161.23004,27.05701c49.83899,12.922 118.82495,12.07098 160.13098,-27.05701c25.14001,-23.75403 41.57996,-84.35004 42.44995,-137.37402c42.70007,36.91003 127.27002,3.25101 129.06006,-6.746c15.05994,-37.66898 -39.31006,-23.94498 -81.69995,-77.95499c-68.33008,-85.617 -70.26001,-80.353 -85.31006,-126.19901c-6.97998,-17.57999 25.67004,-79.351 -10.77002,-146.16499c-14.88,-37.303 -77.40698,-89.39801 -154.409,-89.3348l-0.005,0z" id="path3009-1"/>
   <path stroke="#000" fill="#b6c7ea" stroke-width="1px" filter="url(#filter5081)" d="m209.59399,311.672c-20.95502,28.11401 -36.35901,57.03 -51.14502,72.918c-46.37799,47.26801 -113.67188,73.45599 -98.08527,68.05499c89.5943,-23.64398 143.50226,-105.58499 149.2323,-140.97299l-0.00201,0z" opacity="0.60333" id="path5019"/>
   <path fill="#fff" d="m330.64203,83.597c-49.85803,0 -90.28302,40.42799 -90.28302,90.286c0,25.17401 10.354,47.90901 26.97797,64.26901c-26.64697,36.64499 -42.90497,85.465 -42.90497,139.08298c0,113.737 73.14197,205.95898 163.39697,205.95898c90.25299,0 163.401,-92.22198 163.401,-205.95898c0,-53.62 -16.26001,-102.44098 -42.90796,-139.08298c16.62799,-16.36101 26.97797,-39.095 26.97797,-64.26901c0,-49.858 -40.427,-90.286 -90.28601,-90.286c-21.70996,0 -41.61298,7.634 -57.185,20.40401c-15.57196,-12.77 -35.47498,-20.40401 -57.18695,-20.40401z" id="path2985"/>
   <path stroke="#000" fill="#b6c7ea" stroke-width="1px" filter="url(#filter5081-3)" d="m564.91003,311.67001c20.95996,28.11398 36.35999,57.03 51.15002,72.918c46.37988,47.26797 113.66992,73.45599 98.08997,68.05499c-89.59998,-23.64401 -143.51001,-105.58499 -149.23999,-140.97299l0,0z" opacity="0.60333" id="path5019-7"/>
   <path stroke="#000" fill="url(#linearGradient3877)" stroke-width="1px" filter="url(#filter5182)" d="m379.02301,30.8393c-7.927,17.62189 17.46198,30.67599 47.22998,54.2627c53.42401,7.555 70.29498,15.559 100.66699,27.242c2.26001,-17.28 -68.78296,-78.93819 -147.89697,-81.50249l0,-0.0022z" opacity="0.3" id="path5109"/>
   <path fill="url(#radialGradient5886-7)" filter="url(#filter5946)" d="m407.05652,664.07556c0,13.64764 -8.6582,24.711 -19.33868,24.711s-19.33859,-11.06366 -19.33859,-24.711c0,-13.64758 8.65826,-24.711 19.33859,-24.711s19.33868,11.0636 19.33868,24.711z" opacity="0.36333" id="path5888"/>
   <g id="g3901">
    <g id="g3897">
     <path fill="url(#radialGradient3822)" filter="url(#filter3981-0)" d="m476.5939,213.08748c0,18.85582 -12.99487,34.14189 -29.02542,34.14189c-16.02982,0 -29.02548,-15.28584 -29.02548,-34.14189c0,-18.85579 12.99487,-34.14192 29.02548,-34.14192c16.02975,0 29.02542,15.2859 29.02542,34.14192z" id="path3865-9"/>
     <path fill="url(#radialGradient3884)" d="m469.13351,220.23355c0,13.68582 -9.43198,24.77979 -21.06699,24.77979s-21.06689,-11.09439 -21.06689,-24.77979c0,-13.68575 9.43195,-24.77974 21.06689,-24.77974s21.06699,11.09442 21.06699,24.77974z" id="path3865-3-9"/>
    </g>
    <g id="g3838">
     <path fill="url(#radialGradient3822)" filter="url(#filter3981)" d="m357.03439,213.08748c0,18.85582 -12.99487,34.14189 -29.02545,34.14189c-16.02979,0 -29.02548,-15.28584 -29.02548,-34.14189c0,-18.85579 12.99487,-34.14192 29.02548,-34.14192c16.02979,0 29.02545,15.2859 29.02545,34.14192z" id="path3865"/>
     <path fill="url(#radialGradient3827)" d="m349.57391,220.23355c0,13.68582 -9.43195,24.77979 -21.06696,24.77979s-21.06689,-11.09439 -21.06689,-24.77979c0,-13.68575 9.43195,-24.77974 21.06689,-24.77974s21.06696,11.09442 21.06696,24.77974z" id="path3865-3"/>
    </g>
   </g>
   <g id="g5204">
    <path fill="#ff7f2a" d="m310.27606,261.80139c-26.10339,24.14087 51.6507,72.51419 77.87613,72.42484c24.71439,2.29041 108.07245,-48.28397 74.76233,-72.42484c-7.25598,-11.85303 -144.49194,-11.27762 -152.63846,0z" id="path3841"/>
    <path fill="#fff" d="m444.37985,270.89429c11.46075,-3.80856 16.8042,-4.07263 16.52032,1.10132c3.2486,11.72 -30.44266,34.70566 -52.3136,45.15482c2.18555,-15.41891 46.87744,-32.49014 35.79379,-46.25598l-0.00052,-0.00015z" filter="url(#filter3973)" opacity="0.74667" id="path3915"/>
    <path fill="url(#radialGradient3792)" d="m314.1575,262.56461c-9.65356,5.65939 -2.79703,26.89926 18.58087,43.57831c18.715,14.52612 43.72217,26.13818 56.33884,26.0968c11.88773,1.10178 37.88049,-10.51065 56.8927,-25.30093c19.01437,-14.79108 27.34189,-34.88004 15.02884,-44.37418c9.78909,13.94052 3.57236,22.51636 -7.00198,33.33408c-10.40039,10.63867 -29.23245,23.87265 -46.59622,26.9516c-17.36481,3.07721 -33.01349,0.46475 -49.89969,-8.69821c-17.09766,-9.27805 -51.76184,-37.79767 -43.34277,-51.58527l-0.00058,-0.0022z" filter="url(#filter4716)" opacity="0.26667" id="path3841-6"/>
   </g>
   <path fill="#513a17" filter="url(#filter5326)" d="m364.74435,265.21487c0.69806,4.83246 1.56326,5.97708 4.79129,5.74979c4.87558,-1.43738 4.22708,-2.87473 6.2287,-4.3121c-6.2915,1.6597 -7.87753,0.05179 -11.01999,-1.43741l0,-0.00027z" opacity="0.46333" id="path5308"/>
   <path fill="#513a17" filter="url(#filter5326-5)" d="m409.759,265.10654c-0.69821,4.8324 -1.56335,5.97705 -4.79141,5.74976c-4.87549,-1.43738 -4.22699,-2.87473 -6.22873,-4.31207c6.29163,1.6597 7.87762,0.05176 11.02014,-1.43747l0,-0.00021z" opacity="0.46333" id="path5308-4"/>
  </g>
 </g>
</svg>